/* XPM */
static char * 00_09_xpm[] = {
"32 32 62 1",
" 	c #F2EDF1",
".	c #9FD2E5",
"+	c #1D6C3F",
"@	c #207141",
"#	c #0386D6",
"$	c #8ED963",
"%	c #069ADD",
"&	c #59C34F",
"*	c #AAE46D",
"=	c #C2EE77",
"-	c #42A94C",
";	c #9832E1",
">	c #CE4956",
",	c #4CC0EA",
"'	c #EE7668",
")	c #FEB378",
"!	c #EF7A69",
"~	c #F07F6A",
"{	c #FB95EE",
"]	c #D4FFFE",
"^	c #6BD2F0",
"/	c #F2896D",
"(	c #FDD483",
"_	c #FDE087",
":	c #FEC67E",
"<	c #E45B61",
"[	c #FD9BEC",
"}	c #BCFEFF",
"|	c #B6FBFE",
"1	c #CBF17A",
"2	c #FCED8C",
"3	c #FCF08D",
"4	c #F16AFD",
"5	c #E86263",
"6	c #F38D6E",
"7	c #ED63FE",
"8	c #EB6D66",
"9	c #34B3E6",
"0	c #F9A173",
"a	c #F98CF1",
"b	c #EC7267",
"c	c #F69670",
"d	c #FECA7F",
"e	c #FDE589",
"f	c #F067FE",
"g	c #77D9F2",
"h	c #E961FD",
"i	c #F79A71",
"j	c #ACF6FD",
"k	c #B141EA",
"l	c #F47AF7",
"m	c #CCFEFF",
"n	c #E75E62",
"o	c #A63AE6",
"p	c #A4F2FB",
"q	c #FFB679",
"r	c #FDDB86",
"s	c #711DD3",
"t	c #E5FFFE",
"u	c #D54F5A",
"v	c #028DD8",
"w	c #0B65C9",
"                                ",
"                                ",
"      ..      ..                ",
"      ..      ..                ",
"        ......                  ",
"        ......                  ",
"          +                     ",
"           +                    ",
"           @                    ",
"            #                   ",
"            $%&*=-              ",
"            ;>,')!~    >        ",
"           ;{]],^/(_):< ..      ",
"           [}|/  1_23   ..      ",
"          4567]3890__...        ",
"          abc ~3d|be3...        ",
"    ..    f~gd3(('033           ",
"    ..    hi3_jkl(33_           ",
"      ...<!,idm95:2_n           ",
"      ..>o  p8i:)qrb            ",
"      ss     gt<<ut             ",
"                  j             ",
"                   v            ",
"                   w            ",
"                ..  w         ..",
"                ..            ..",
"                  ....    ....  ",
"                  ....    ....  ",
"                      ....      ",
"                      ....      ",
"                                ",
"                                "};
