/* XPM */
static char * 01_09_xpm[] = {
"32 32 81 1",
" 	c #F2EDF1",
".	c #9FD2E5",
"+	c #267E44",
"@	c #CA4555",
"#	c #EF65FF",
"$	c #FFA3EA",
"%	c #C64CF1",
"&	c #6CCC56",
"*	c #53BD4E",
"=	c #379D4B",
"-	c #B543EB",
";	c #FA90F0",
">	c #FD9BEC",
",	c #069ADD",
"'	c #D04A58",
")	c #2BAFE4",
"!	c #096DCC",
"~	c #A238E4",
"{	c #BFEC75",
"]	c #96DC66",
"^	c #C84354",
"/	c #028DD8",
"(	c #C3FEFF",
"_	c #DCFFFE",
":	c #D34D59",
"<	c #057DD2",
"[	c #F376F9",
"}	c #CBF17A",
"|	c #4EB84E",
"1	c #C14AEF",
"2	c #D4FFFE",
"3	c #F89E72",
"4	c #F067FE",
"5	c #F783F4",
"6	c #E45EFB",
"7	c #E961FD",
"8	c #A4F2FB",
"9	c #3FB9E8",
"0	c #FEC67E",
"a	c #F26FFB",
"b	c #FB94EE",
"c	c #DE565E",
"d	c #5DC751",
"e	c #E75E62",
"f	c #E45B61",
"g	c #9CEDF9",
"h	c #FFB679",
"i	c #B3E871",
"j	c #ACF6FD",
"k	c #F2856C",
"l	c #F5926F",
"m	c #0B9CDE",
"n	c #F1836C",
"o	c #F2896D",
"p	c #C23E51",
"q	c #BCFEFF",
"r	c #0197DC",
"s	c #FCEC8C",
"t	c #FDDC86",
"u	c #0C60C7",
"v	c #E5FFFE",
"w	c #EF7A69",
"x	c #FDE589",
"y	c #FAA574",
"z	c #51BB4E",
"A	c #85D65F",
"B	c #FEC27D",
"C	c #FCF08D",
"D	c #FDE087",
"E	c #92DB64",
"F	c #FECA7F",
"G	c #E96664",
"H	c #FDD483",
"I	c #FFBA7A",
"J	c #751ED5",
"K	c #FECD80",
"L	c #AFF8FD",
"M	c #EA6965",
"N	c #80DEF4",
"O	c #F07F6A",
"P	c #1C693F",
"                                ",
"                                ",
"      ..      ..                ",
"      ..      ..                ",
"        ......                  ",
"        ......                  ",
"           +                    ",
"                                ",
"               @                ",
"            #$$@%&*=            ",
"          -;>$,')!~{]     ^     ",
"          ;>/(_:,<[}}|  :       ",
"         1[)(2234[56}}  ..      ",
"         78@(_90ab>cc}d ..      ",
"         /efg( 3  a>hei.        ",
"         jkl((mnopqrstu.        ",
"    ..   vwxy2 e zABCCe         ",
"    ..   vvDxty3 EoCCFG         ",
"      .^.2vlHD0HCDCCHIc         ",
"      .J.m_vyKhBFFCCtI          ",
"     J    L_cDtHsCCsxM          ",
"           NqLIDCCCBe           ",
"             /,fhFO             ",
"                                ",
"                ..P           ..",
"                ..  !         ..",
"                  ....    ....  ",
"                  ....    ....  ",
"                      ....      ",
"                      ....      ",
"                                ",
"                                "};
