/* XPM */
static char * 10_xpm[] = {
"32 32 64 1",
" 	c #F2EDF1",
".	c #9FD2E5",
"+	c #6113CE",
"@	c #BD394E",
"#	c #145A3A",
"$	c #028DD8",
"%	c #0D5AC5",
"&	c #3FB9E8",
"*	c #6515CF",
"=	c #24AAE3",
"-	c #8829DB",
";	c #48BEEA",
">	c #0193DB",
",	c #CE50F3",
"'	c #0871CD",
")	c #165D3C",
"!	c #C84354",
"~	c #EB6D66",
"{	c #DB545D",
"]	c #BF3C50",
"^	c #6A18D1",
"/	c #DE565E",
"(	c #ED7467",
"_	c #FEB378",
":	c #5CC9ED",
"<	c #7E24D8",
"[	c #18613D",
"}	c #1149BE",
"|	c #D04A58",
"1	c #0F51C1",
"2	c #C4FEFF",
"3	c #53C5EB",
"4	c #067AD1",
"5	c #3AA04C",
"6	c #3FA54C",
"7	c #1C683F",
"8	c #104DC0",
"9	c #FDD483",
"0	c #F57CF7",
"a	c #711CD3",
"b	c #F69670",
"c	c #FEC67E",
"d	c #E86263",
"e	c #1146BD",
"f	c #0A69CA",
"g	c #FFBE7B",
"h	c #F79C72",
"i	c #F2896D",
"j	c #B342EA",
"k	c #9330DF",
"l	c #E75E62",
"m	c #D8515B",
"n	c #D54F5A",
"o	c #741ED4",
"p	c #8225D9",
"q	c #A439E5",
"r	c #CA4EF2",
"s	c #8D2CDD",
"t	c #278045",
"u	c #247943",
"v	c #53BD4E",
"w	c #4EB84E",
"x	c #2C8A47",
"y	c #32964A",
"                                ",
"                                ",
"      ..      ..                ",
"      ..      ..                ",
"        ......  +  @            ",
"        .#+...    $%            ",
"             +    &             ",
"             *    =             ",
"      *       -  ;>             ",
"              ,  &       #      ",
"                 '        @     ",
"    )@                          ",
"    !~{       @]@^..    ..      ",
"      /(_~   !(:{'<.   [##      ",
"    }    |  1(_2]34 .567   }    ",
"    8       }_9 ,0a ....   8    ",
"    ..    ..)bcdeff        8    ",
"    ..}%$&.. ghi{,6  j,k  ^8    ",
"      ....   l/mno    pqrqs%    ",
"      ....                      ",
"     }                          ",
"             tu  l       +      ",
"      8      v   (              ",
"             w   {              ",
"            u5  .@            ..",
"         }# x   ..   @}       ..",
"            y[    ....    ....  ",
"             ^**++....    ....  ",
"                      ....      ",
"                      ....      ",
"                                ",
"                                "};
