/* XPM */
static char * 11_09_xpm[] = {
"32 32 54 1",
" 	c #F2EDF1",
".	c #9FD2E5",
"+	c #C23E51",
"@	c #104DC0",
"#	c #6113CE",
"$	c #5D11CC",
"%	c #0484D5",
"&	c #0C60C7",
"*	c #6817D0",
"=	c #0871CD",
"-	c #A439E5",
";	c #0969CB",
">	c #BF3C50",
",	c #1145BD",
"'	c #CB4655",
")	c #165E3C",
"!	c #D7505B",
"~	c #C74253",
"{	c #BB384E",
"]	c #6616CF",
"^	c #6E1BD2",
"/	c #0E52C2",
"(	c #96E9F8",
"_	c #0193DB",
":	c #B9374D",
"<	c #912FDF",
"[	c #13563A",
"}	c #EA6965",
"|	c #E86263",
"1	c #109FDF",
"2	c #0D5AC5",
"3	c #115339",
"4	c #19623D",
"5	c #F69670",
"6	c #B7354C",
"7	c #BE48EE",
"8	c #2F9049",
"9	c #2A8646",
"0	c #1241BB",
"a	c #3FB9E8",
"b	c #7A21D6",
"c	c #1A663E",
"d	c #FDB177",
"e	c #C84354",
"f	c #8225D9",
"g	c #40A74C",
"h	c #E0585F",
"i	c #2D8B48",
"j	c #8B2BDC",
"k	c #7F24D8",
"l	c #EB6D66",
"m	c #227542",
"n	c #247A43",
"o	c #267E44",
"                                ",
"                                ",
"      ..      ..                ",
"      ..      .++               ",
"        ......    @             ",
"        .#....$     %@          ",
"                    &           ",
"               *   =            ",
"               -   ;     >      ",
"                  ,             ",
"     '                    )     ",
"      '!                        ",
"    ~   +{      ]^..    ..      ",
"    +       /(_^:/<.    ..      ",
"   [        /}|1{2  .... 3      ",
"   4        ,55 67) ..89        ",
"   ).002a2..  ! 0,b        c    ",
"    ..    .. d}e fg             ",
"      ....   }h! i         /    ",
"      ....            ]j  b     ",
"                         kk     ",
"     ,      [                   ",
"     #      )   l        {      ",
"           m    |               ",
"           n    :.            ..",
"        ,       :.            ..",
"           o      ...,    ....  ",
"                  ....    ....  ",
"                      ....      ",
"                      ....      ",
"                                ",
"                                "};
