/* XPM */
static char * 12_09_xpm[] = {
"32 32 41 1",
" 	c #F2EDF1",
".	c #9FD2E5",
"+	c #0E52C2",
"@	c #104DC0",
"#	c #5A0FCB",
"$	c #5D11CC",
"%	c #BD3A4F",
"&	c #BF3C50",
"*	c #711DD3",
"=	c #0C60C7",
"-	c #C84354",
";	c #CB4655",
">	c #CE50F3",
",	c #1AA4E1",
"'	c #109FDF",
")	c #267E44",
"!	c #B7354C",
"~	c #9B34E2",
"{	c #1241BB",
"]	c #1245BC",
"^	c #8D2CDD",
"/	c #115339",
"(	c #12563A",
"_	c #E96664",
":	c #6817D0",
"<	c #0D5AC5",
"[	c #1E6E40",
"}	c #19623D",
"|	c #FDE489",
"1	c #F2896D",
"2	c #B9374D",
"3	c #359A4B",
"4	c #9330DF",
"5	c #4BB44D",
"6	c #F79C72",
"7	c #DE565E",
"8	c #4EB84E",
"9	c #32964B",
"0	c #6012CD",
"a	c #155A3B",
"b	c #165D3C",
"                                ",
"                                ",
"      ..      ..                ",
"      ..      ..                ",
"        ......     +@           ",
"        ......                  ",
"               #                ",
"               $                ",
"                                ",
"       %                        ",
"        &                       ",
"    &                           ",
"                $*..    ..      ",
"            =-; *=>.    ..      ",
"            @,')!=~ ....        ",
"      {]      ^ &&  .../(/      ",
"    ..    .. _:<&[}             ",
"    ..    .. |12345             ",
"      ....   67! 89             ",
"      ....                      ",
"                      0         ",
"                       0  0     ",
"          a                     ",
"               !                ",
"               2..            ..",
"               !..            ..",
"          a       ....    ....  ",
"            b     ....    ....  ",
"                      ....      ",
"                      ....      ",
"                                ",
"                                "};
