/* XPM */
static char * 13_09_xpm[] = {
"32 32 34 1",
" 	c #F2EDF1",
".	c #9FD2E5",
"+	c #145A3A",
"@	c #6314CE",
"#	c #0C60C7",
"$	c #115339",
"%	c #91E7F7",
"&	c #CCFEFF",
"*	c #096DCC",
"=	c #DD59F8",
"-	c #A439E5",
";	c #133EBA",
">	c #0871CD",
",	c #028ED9",
"'	c #1C693F",
")	c #32964B",
"!	c #F57CF7",
"~	c #D957F7",
"{	c #9631E0",
"]	c #BF3C50",
"^	c #6A18D1",
"/	c #FAA574",
"(	c #1149BE",
"_	c #C84354",
":	c #CC4756",
"<	c #FDDC86",
"[	c #E75E62",
"}	c #0A65CA",
"|	c #45AD4D",
"1	c #A0E06A",
"2	c #2B8847",
"3	c #D8515B",
"4	c #3AA04C",
"5	c #51BB4E",
"                                ",
"                                ",
"      ..      ..                ",
"      ..      ..                ",
"        +.....                  ",
"        ......                  ",
"                @               ",
"                                ",
"                                ",
"                                ",
"                                ",
"                                ",
"              #   ..    ..      ",
"  $          %&* =-.    ..      ",
"            ;>,')!~ ....        ",
"              {  ]^ ....        ",
"    ..    ..]/( _:$     +       ",
"    ..    .._<[}|12             ",
"      ....   3] 45              ",
"      ....                      ",
"                                ",
"                                ",
"                                ",
"        +                       ",
"                ..            ..",
"                ..            ..",
"                  ....    ....  ",
"                  ....    ....  ",
"                      ....      ",
"                      ....      ",
"                                ",
"                                "};
