/* XPM */
static char * 14_09_xpm[] = {
"32 32 30 1",
" 	c #F2EDF1",
".	c #9FD2E5",
"+	c #6314CE",
"@	c #0D5AC5",
"#	c #1149BE",
"$	c #80DEF4",
"%	c #CCFEFF",
"&	c #028DD8",
"*	c #C14AEF",
"=	c #8B2BDC",
"-	c #7921D6",
";	c #145A3A",
">	c #32964B",
",	c #E45EFB",
"'	c #D454F5",
")	c #C23E51",
"!	c #8326D9",
"~	c #6A18D1",
"{	c #9330DF",
"]	c #C84354",
"^	c #FAA574",
"/	c #D04A58",
"(	c #FED483",
"_	c #104DC0",
":	c #389E4C",
"<	c #5DC751",
"[	c #227542",
"}	c #D8515B",
"|	c #18613D",
"1	c #45AD4D",
"                                ",
"                                ",
"      ..      ..                ",
"      ..      ..                ",
"        ......                  ",
"        ......                  ",
"                 +              ",
"                                ",
"                                ",
"                                ",
"                                ",
"                                ",
"              @#  ..    ..      ",
"             $%& *=.    ..      ",
"              -;>,' ....        ",
"             )!  ~{ ....        ",
"    ..    ..]^   /              ",
"    ..    .. (_@:<[             ",
"      ....   } |11              ",
"      ....                      ",
"                                ",
"                                ",
"                                ",
"                                ",
"                ..            ..",
"                ..            ..",
"                  ....    ....  ",
"                  ....    ....  ",
"                      ....      ",
"                      ....      ",
"                                ",
"                                "};
