/* XPM */
static char * 15_09_xpm[] = {
"32 32 13 1",
" 	c #F2EDF1",
".	c #9FD2E5",
"+	c #0E52C2",
"@	c #133EBA",
"#	c #1245BC",
"$	c #5A0FCB",
"%	c #570DCA",
"&	c #C13E51",
"*	c #711DD3",
"=	c #B4324B",
"-	c #B7354C",
";	c #1F6F40",
">	c #115339",
"                                ",
"                                ",
"      ..      ..                ",
"      ..      ..                ",
"        ......                  ",
"        ......                  ",
"                                ",
"                                ",
"                                ",
"                                ",
"                                ",
"                                ",
"               +@ ..    ..      ",
"             #    $.    ..      ",
"              %     ....        ",
"            &     * ....        ",
"    ..    ..=     $             ",
"    ..    ..  @                 ",
"      ....   - ;>               ",
"      ....                      ",
"                                ",
"                                ",
"                                ",
"                                ",
"                ..            ..",
"                ..            ..",
"                  ....    ....  ",
"                  ....    ....  ",
"                      ....      ",
"                      ....      ",
"                                ",
"                                "};
