/* XPM */
static char * 16_09_xpm[] = {
"32 32 11 1",
" 	c #F2EDF1",
".	c #9FD2E5",
"+	c #133EBA",
"@	c #145A3A",
"#	c #B4324B",
"$	c #560DCA",
"%	c #510AC8",
"&	c #1245BC",
"*	c #1340BB",
"=	c #C23E51",
"-	c #12563A",
"                                ",
"                                ",
"      ..      ..                ",
"      ..      ..                ",
"        ......                  ",
"        ......                  ",
"                                ",
"                                ",
"                                ",
"                                ",
"                                ",
"                                ",
"               ++ ..    ..      ",
"                  ..    ..      ",
"                 @  ....        ",
"            #     $ ....        ",
"    ..    ..      %             ",
"    ..    .. &*  =              ",
"      ....     -                ",
"      ....                      ",
"                                ",
"                                ",
"                                ",
"                                ",
"                ..            ..",
"                ..            ..",
"                  ....    ....  ",
"                  ....    ....  ",
"                      ....      ",
"                      ....      ",
"                                ",
"                                "};
