/* XPM */
static char * 2_xpm[] = {
"32 32 90 1",
" 	c #F2EDF1",
".	c #9FD2E5",
"+	c #C84354",
"@	c #A238E4",
"#	c #F57EF6",
"$	c #F887F3",
"%	c #BE48EE",
"&	c #8829DB",
"*	c #9631E0",
"=	c #F067FE",
"-	c #F47AF7",
";	c #FFA3EA",
">	c #FA90F0",
",	c #EE63FF",
"'	c #F477F9",
")	c #CBF17A",
"!	c #51BB4E",
"~	c #9D35E3",
"{	c #F98CF1",
"]	c #F375F9",
"^	c #F16EFC",
"/	c #109FDF",
"(	c #DBFFFE",
"_	c #E5FFFE",
":	c #39B6E7",
"<	c #EF65FF",
"[	c #62C852",
"}	c #F06AFD",
"|	c #33B3E6",
"1	c #BBFEFF",
"2	c #CCFEFF",
"3	c #C23E51",
"4	c #1AA4E1",
"5	c #A63AE6",
"6	c #7FD35D",
"7	c #98DD67",
"8	c #399F4C",
"9	c #80DEF4",
"0	c #91E7F7",
"a	c #9BECF9",
"b	c #B5FBFE",
"c	c #F272FA",
"d	c #E25DFB",
"e	c #8226D9",
"f	c #89D761",
"g	c #1C683F",
"h	c #2BAFE4",
"i	c #D8515B",
"j	c #FEC67E",
"k	c #F2856C",
"l	c #D4FFFE",
"m	c #D04A58",
"n	c #FB94EE",
"o	c #B141EA",
"p	c #FDD483",
"q	c #FCF08D",
"r	c #FECA7F",
"s	c #DB545D",
"t	c #FD9BEC",
"u	c #92DB64",
"v	c #FDE589",
"w	c #FEC27D",
"x	c #FFB679",
"y	c #EF7969",
"z	c #C3FEFF",
"A	c #F1836C",
"B	c #F28A6D",
"C	c #0193DB",
"D	c #FDDB86",
"E	c #FCED8C",
"F	c #104EC0",
"G	c #F69570",
"H	c #3FA54C",
"I	c #FDE087",
"J	c #FDB177",
"K	c #F07F6A",
"L	c #6CD2F0",
"M	c #F79A71",
"N	c #FBA975",
"O	c #FECD80",
"P	c #FEB378",
"Q	c #FAA574",
"R	c #A3F2FB",
"S	c #E75E62",
"T	c #53C5EC",
"U	c #EA6965",
"V	c #D54E59",
"W	c #ED7467",
"X	c #F48F6F",
"Y	c #711CD3",
"                                ",
"                                ",
"      ..      ..                ",
"      ..      ..                ",
"        ......     +            ",
"        ......                  ",
"                                ",
"           @#$%&                ",
"         *=-;;>, ')))!          ",
"        ~{]^/(___:<&))[         ",
"        '>}|1__2_34}5678        ",
"        ;;90a2(21bc<def6        ",
"     g  ;haa2(_23#>i==))..      ",
"        42jkl__l3;;mn;o)..      ",
"        2pqrs2_b{;;tt;<u        ",
"        aqvwxyzwA#>$#B'.        ",
"    .. C1qDDEqqjxpFdGDyH        ",
"    .. a_qqIEqEpqqqqvwJ         ",
"      .l_xIwIEwpqqqqJrqK        ",
"      .Ll1MNwOPpIvqqwIqQ        ",
"        1RSxJwDqqqEvwOqK        ",
"        T2zUNjvqqqIpPrD         ",
"         a(_VwqIqqIjwjU         ",
"           LL yW vqIX           ",
"                ..            ..",
"            Y   ..            ..",
"                  ....    ....  ",
"                  ....    ....  ",
"                      ....      ",
"                      ....      ",
"                                ",
"                                "};
