/* XPM */
static char * 3_xpm[] = {
"32 32 95 2",
"  	c #F2EDF1",
". 	c #9FD2E5",
"+ 	c #E75E62",
"@ 	c #9D35E3",
"# 	c #F1836C",
"$ 	c #FDE489",
"% 	c #EA6965",
"& 	c #FDD483",
"* 	c #FDE087",
"= 	c #FBA975",
"- 	c #FDDB86",
"; 	c #C64253",
"> 	c #7C22D7",
", 	c #F0816B",
"' 	c #FCEC8C",
") 	c #FECA7F",
"! 	c #C84354",
"~ 	c #7921D6",
"{ 	c #F69670",
"] 	c #FECE81",
"^ 	c #EB6D66",
"/ 	c #207141",
"( 	c #C23E51",
"_ 	c #FCF08D",
": 	c #6817D0",
"< 	c #7720D5",
"[ 	c #6616CF",
"} 	c #FEC67E",
"| 	c #63CEEF",
"1 	c #95E9F8",
"2 	c #ACF6FD",
"3 	c #D4FFFE",
"4 	c #CCFEFF",
"5 	c #E5FFFE",
"6 	c #BCFEFF",
"7 	c #48BEEA",
"8 	c #109FDF",
"9 	c #067AD1",
"0 	c #C3FEFF",
"a 	c #DBFFFE",
"b 	c #A5F2FB",
"c 	c #0969CB",
"d 	c #18613D",
"e 	c #FCAB76",
"f 	c #278045",
"g 	c #F98CF1",
"h 	c #9832E1",
"i 	c #80DEF4",
"j 	c #028DD8",
"k 	c #FDB177",
"l 	c #ED7568",
"m 	c #AD3FE8",
"n 	c #53C5EC",
"o 	c #2BAFE4",
"p 	c #A1E06A",
"q 	c #0484D5",
"r 	c #CBF17A",
"s 	c #B141EA",
"t 	c #FFA3EA",
"u 	c #FB95EE",
"v 	c #9330DF",
"w 	c #0E57C4",
"x 	c #0D5AC5",
"y 	c #BFEC75",
"z 	c #0B65C9",
"A 	c #89D761",
"B 	c #68CA54",
"C 	c #46AE4D",
"D 	c #C6EF78",
"E 	c #F16AFD",
"F 	c #FA90F0",
"G 	c #165E3C",
"H 	c #2B8847",
"I 	c #5DC650",
"J 	c #AAE46D",
"K 	c #BC47ED",
"L 	c #BE48EE",
"M 	c #49B14D",
"N 	c #59C34F",
"O 	c #42A94C",
"P 	c #379D4B",
"Q 	c #359A4B",
"R 	c #CF51F4",
"S 	c #F272FA",
"T 	c #D555F6",
"U 	c #CF4957",
"V 	c #E25DFB",
"W 	c #F57EF6",
"X 	c #D8515B",
"Y 	c #6E1AD2",
"Z 	c #ED63FE",
"` 	c #FD9BEC",
" .	c #DE5AF9",
"..	c #F5916F",
"+.	c #EC7267",
"                                                                ",
"                                                                ",
"            . .             + @                                 ",
"            . .           # $ %                                 ",
"                . . . . . & $ #                                 ",
"                . . . . . * $ =                                 ",
"                        + - &   ; >                             ",
"                        , ' )   ! ~                             ",
"                        { ] ^ / (                               ",
"                        ' '                                     ",
"                        _ _       :   <                         ",
"                        * $       [                             ",
"                        ] }   | 1 2 3 4 5 5 6 7 8 9             ",
"                        ] ] 0 5 5 3 0 4 5 5 4 3 a 4 a b         ",
"            c   d d     e _ { f b g   h . . . i 4 4 a a 0       ",
"      j     f           k _   + l ( ( m . . . .   n | o p       ",
"    q 0 q r         . .   *   9 s t u v       w x               ",
"      y r r z w x z A B C { r r D E F @ G       H               ",
"        C I B J p r r r r r r r   K F L                         ",
"            . . . M N C C O ( P Q R F s                         ",
"                                  S t T                         ",
"                                  U t V                         ",
"                            [     U F                           ",
"                            :     ( W                           ",
"                            X Y . U S                       . . ",
"                              v Z u Z                       . . ",
"                                F `  .. . .         . . . .     ",
"                                ..` . . . .         . . . .     ",
"                              +.e T         . . . .             ",
"                                            . . . .             ",
"                                                                ",
"                                                                "};
