/* XPM */
static char * 4_xpm[] = {
"32 32 79 1",
" 	c #F2EDF1",
".	c #9FD2E5",
"+	c #E25A60",
"@	c #8D2CDD",
"#	c #FCF08D",
"$	c #FDE489",
"%	c #F9A173",
"&	c #FEC67E",
"*	c #FFBA7A",
"=	c #DD565E",
"-	c #FFBF7C",
";	c #FCED8C",
">	c #E75E62",
",	c #FECA7F",
"'	c #F2896D",
")	c #FDD483",
"!	c #F89E72",
"~	c #FECD80",
"{	c #FFB679",
"]	c #165E3C",
"^	c #48BEEA",
"/	c #CCFEFF",
"(	c #C3FEFF",
"_	c #E5FFFE",
":	c #DBFFFE",
"<	c #9BECF9",
"[	c #0699DD",
"}	c #0484D5",
"|	c #84E0F5",
"1	c #91E7F7",
"2	c #A4F2FB",
"3	c #BCFEFF",
"4	c #ACF6FD",
"5	c #2BAEE4",
"6	c #E0585F",
"7	c #F48F6F",
"8	c #2E8E48",
"9	c #DE5AF9",
"0	c #39B6E7",
"a	c #53C5EC",
"b	c #0193DB",
"c	c #359A4B",
"d	c #F69670",
"e	c #AB3DE7",
"f	c #BA46ED",
"g	c #1BA4E1",
"h	c #73D6F2",
"i	c #33984B",
"j	c #D4FFFE",
"k	c #CBF17A",
"l	c #5AC54F",
"m	c #FBA975",
"n	c #C23E51",
"o	c #7BD25C",
"p	c #62C852",
"q	c #59C34F",
"r	c #49B14D",
"s	c #31924A",
"t	c #54BF4E",
"u	c #F57EF6",
"v	c #379D4B",
"w	c #4DB64E",
"x	c #3FA54C",
"y	c #56C14F",
"z	c #9631E0",
"A	c #FB94EE",
"B	c #AD3FE8",
"C	c #45AD4D",
"D	c #44AB4D",
"E	c #A63AE6",
"F	c #FA90F0",
"G	c #FFA3EA",
"H	c #C54CF0",
"I	c #BF49EE",
"J	c #6616CF",
"K	c #E65FFC",
"L	c #F887F3",
"M	c #F47AF7",
"N	c #FD9BEC",
"                                ",
"                                ",
"      ..      +@                ",
"      ..      #$                ",
"        .....%##                ",
"        .....&$*                ",
"            =-;                 ",
"            > ,                 ",
"            '                   ",
"            )!                  ",
"            ##                  ",
"            ))                  ",
"            ~{  ]^/(_:<[}.      ",
"            **^|^123_:  .(45    ",
"         ]  67 8 9  ...0::__3   ",
"   abc       de =f  .... g__h   ",
"  ijkkl   .. m }  n             ",
"   okkkp  qrss }t@u             ",
"     vwixkkkkkyi zAB            ",
"      ....CDD    EFe            ",
"                 9GH            ",
"                 IG             ",
"              J   K             ",
"                 Ez             ",
"                HLf           ..",
"                MAI           ..",
"               9GN....    ....  ",
"               m)F....    ....  ",
"                !B    ....      ",
"                      ....      ",
"                                ",
"                                "};
