/* XPM */
static char * 5_xpm[] = {
"32 32 67 1",
" 	c #F2EDF1",
".	c #9FD2E5",
"+	c #DB545D",
"@	c #FDDC86",
"#	c #FDE087",
"$	c #F0816B",
"%	c #CF4957",
"&	c #FDD483",
"*	c #FDE489",
"=	c #FFBA7A",
"-	c #7720D5",
";	c #FAA574",
">	c #E45B61",
",	c #BF49EE",
"'	c #FBA975",
")	c #E86263",
"!	c #F38D6E",
"~	c #7921D6",
"{	c #EF7969",
"]	c #D7505B",
"^	c #D04A58",
"/	c #EC7267",
"(	c #C23E51",
"_	c #0C5DC6",
":	c #0969CB",
"<	c #028ED9",
"[	c #39B6E7",
"}	c #80DEF4",
"|	c #0774CF",
"1	c #1D6C3F",
"2	c #0194DB",
"3	c #096ECD",
"4	c #104DC0",
"5	c #9832E1",
"6	c #4BB44D",
"7	c #B6FBFE",
"8	c #5BC9ED",
"9	c #BCFEFF",
"0	c #D4FFFE",
"a	c #B3E871",
"b	c #CBF17A",
"c	c #5DC650",
"d	c #C54CF0",
"e	c #6BD2F0",
"f	c #DBFFFE",
"g	c #95E9F8",
"h	c #31924A",
"i	c #7BD25C",
"j	c #CA4555",
"k	c #F2896D",
"l	c #067AD1",
"m	c #0F51C1",
"n	c #3AA04C",
"o	c #0E57C4",
"p	c #32964B",
"q	c #4EB84E",
"r	c #8D2CDD",
"s	c #BC47ED",
"t	c #F5916F",
"u	c #E45EFB",
"v	c #F477F9",
"w	c #F2856C",
"x	c #F98CF1",
"y	c #FD9BEC",
"z	c #FB94EE",
"A	c #EA61FD",
"B	c #F272FA",
"                                ",
"                                ",
"      ..      .+                ",
"      ..      @#$               ",
"        .....%&*=-              ",
"        ......;&> ,             ",
"              ')  ,             ",
"            > !  ~              ",
"            {                   ",
"            ]                   ",
"            %^                  ",
"             /                  ",
"             (    .._:<[..      ",
"    :}}|         1.|2   .. 3    ",
"    4         5-6   ...|78908   ",
"   abc        d:$%  .... effg   ",
"  hbbbi   ..  |jk)        8g    ",
"   66.    .h  llm       h h     ",
"      .hn.   o          pq      ",
"      ....       -              ",
"                 r              ",
"                                ",
"                                ",
"                  s             ",
"             t  u.            ..",
"             ; 5v.            ..",
"             w xy ....    ....  ",
"               zyA....    ....  ",
"               sB     ....      ",
"                      ....      ",
"                                ",
"                                "};
