/* XPM */
static char * 6_xpm[] = {
"32 32 71 1",
" 	c #F2EDF1",
".	c #9FD2E5",
"+	c #CE4956",
"@	c #EF7A69",
"#	c #FDDB86",
"$	c #FCF08D",
"%	c #FEB378",
"&	c #DB545D",
"*	c #FECA7F",
"=	c #F1836C",
"-	c #6616CF",
";	c #711DD3",
">	c #EB6C66",
",	c #165E3C",
"'	c #C23E51",
")	c #1A663E",
"!	c #6A18D1",
"~	c #E45B61",
"{	c #C14AEF",
"]	c #D7505B",
"^	c #0B65C9",
"/	c #104EC0",
"(	c #AD3FE8",
"_	c #155A3B",
":	c #0E57C4",
"<	c #D152F4",
"[	c #247A43",
"}	c #53C5EC",
"|	c #50BA4E",
"1	c #CBF17A",
"2	c #8DD962",
"3	c #227542",
"4	c #9A34E1",
"5	c #0484D5",
"6	c #CA4555",
"7	c #49B24D",
"8	c #46AE4D",
"9	c #3DA34C",
"0	c #B9EA73",
"a	c #83D55F",
"b	c #5DC751",
"c	c #19623D",
"d	c #6113CE",
"e	c #7A21D6",
"f	c #F69670",
"g	c #EA6965",
"h	c #BD3A4F",
"i	c #2BAFE4",
"j	c #73D6F2",
"k	c #F5926F",
"l	c #E5FFFE",
"m	c #3DB8E7",
"n	c #33B3E6",
"o	c #5CC9ED",
"p	c #028DD8",
"q	c #FAA674",
"r	c #0E52C2",
"s	c #067AD1",
"t	c #B6FBFE",
"u	c #C64253",
"v	c #6E1AD2",
"w	c #E96463",
"x	c #7720D5",
"y	c #FCAB76",
"z	c #D8515B",
"A	c #9330DF",
"B	c #FFA3E9",
"C	c #F374FA",
"D	c #FA90F0",
"E	c #F478F8",
"F	c #EA61FD",
"                                ",
"                                ",
"      ..      .+                ",
"      ..      .@#               ",
"        ......  $%              ",
"        ...... &*=              ",
"                                ",
"                  -             ",
"                                ",
"             ;                  ",
"             >,'')              ",
"            !~{, ]^             ",
"       /   !  (_' .:    ..      ",
"           +  <[' ..}[  ..      ",
"   |12    !3, 456789-...        ",
"  [0ab    c de{+fg'h-'..    i   ",
"    ..    c. 6]jk// -     llm   ",
"    ..    no   pq  rs     ti    ",
"      .... :   />   u  ,        ",
"      ....  ' v  w '            ",
"             x'u,y:             ",
"               / z              ",
"                                ",
"             '                  ",
"                ..            ..",
"               A..            ..",
"              BC  ....    ....  ",
"              DE  ....    ....  ",
"               F;     ....      ",
"                      ....      ",
"                                ",
"                                "};
