/* XPM */
static char * 7_xpm[] = {
"32 32 111 2",
"  	c #F2EDF1",
". 	c #9FD2E5",
"+ 	c #7921D6",
"@ 	c #FECE80",
"# 	c #0E52C2",
"$ 	c #7720D5",
"% 	c #E75E62",
"& 	c #104ABF",
"* 	c #C84354",
"= 	c #711DD3",
"- 	c #9832E1",
"; 	c #6515CF",
"> 	c #1C693F",
", 	c #BF3C50",
"' 	c #067AD1",
") 	c #CA4555",
"! 	c #AD3FE8",
"~ 	c #32964A",
"{ 	c #C3FEFF",
"] 	c #80DEF4",
"^ 	c #9D35E3",
"/ 	c #359A4B",
"( 	c #6E1AD2",
"_ 	c #6314CE",
": 	c #1D6C3F",
"< 	c #CCFEFF",
"[ 	c #33B2E6",
"} 	c #BF49EE",
"| 	c #2D8B48",
"1 	c #298546",
"2 	c #F16CFC",
"3 	c #DA58F8",
"4 	c #9330DF",
"5 	c #BCFEFF",
"6 	c #1AA4E1",
"7 	c #A63AE6",
"8 	c #4BB44D",
"9 	c #66CA54",
"0 	c #CF4957",
"a 	c #FB94EE",
"b 	c #0A65CA",
"c 	c #8D2CDD",
"d 	c #6BD2F0",
"e 	c #E5FFFE",
"f 	c #44AB4D",
"g 	c #CBF17A",
"h 	c #D7505B",
"i 	c #F374FA",
"j 	c #ED63FE",
"k 	c #0D5AC5",
"l 	c #70CD57",
"m 	c #309249",
"n 	c #F57CF7",
"o 	c #FA90F0",
"p 	c #EF7A69",
"q 	c #D4FFFE",
"r 	c #9BECF9",
"s 	c #F1836C",
"t 	c #FFA3E9",
"u 	c #F98BF1",
"v 	c #389E4C",
"w 	c #EF7D6A",
"x 	c #FCF08D",
"y 	c #FECA7F",
"z 	c #F69670",
"A 	c #F5926F",
"B 	c #B945EC",
"C 	c #207141",
"D 	c #379D4B",
"E 	c #267E44",
"F 	c #0483D5",
"G 	c #0194DB",
"H 	c #EB6C66",
"I 	c #FDDB86",
"J 	c #FDD483",
"K 	c #FCAE76",
"L 	c #D8515B",
"M 	c #FCEC8C",
"N 	c #FEC27D",
"O 	c #EC7167",
"P 	c #E96463",
"Q 	c #F79A71",
"R 	c #FDE489",
"S 	c #6817D0",
"T 	c #91E7F7",
"U 	c #3FB9E8",
"V 	c #19623D",
"W 	c #FAA574",
"X 	c #ED7568",
"Y 	c #F9A173",
"Z 	c #F38D6E",
"` 	c #5BC9ED",
" .	c #D34D59",
"..	c #F79C72",
"+.	c #0D9DDF",
"@.	c #0699DD",
"#.	c #ED7467",
"$.	c #92DB64",
"%.	c #E45B61",
"&.	c #DB545D",
"*.	c #104DC0",
"=.	c #028ED9",
"-.	c #53BD4E",
";.	c #C23E51",
">.	c #BE3A4F",
",.	c #096DCC",
"'.	c #165D3C",
").	c #155B3B",
"!.	c #D152F4",
"~.	c #9632E0",
"{.	c #B141EA",
"                                                                ",
"                                                                ",
"            . .             . .                                 ",
"            . .             . .                                 ",
"                . . . . . .                                     ",
"                . . . . . .   +   @                             ",
"                #             $   %                             ",
"                  &       * = - ;   > ,                         ",
"                  & ' )       !       # ~       ;               ",
"                    { ]       ^       / ( , , _                 ",
"              ( :     < [     }     | 1 * 2 3                   ",
"                4 4     5 6   7   8 9 0 } a                     ",
"              ( b + ! c d e { ; f g h i j     k . .             ",
"          l m         n o < p q r s t u         , .             ",
"          v             a w x y z A # 7 . . . ; ,               ",
"              b           y x x @ w B C 8 D D f k E             ",
"        . .   F 6 G 6 F H x x I @ J K           ,               ",
"        . .   #     . L M x N O P Q x R       S , T U           ",
"            . V . .   W M X e   ( g ' Y Z     (                 ",
"            . S . . y Z = e `   * l g /   H  .)                 ",
"                  R ..+ +.@.    #.  ~ $.    %.&.                ",
"                0 *.h b =.      P     -.g   k   ;.              ",
"              >.  S b *         H       8 1                     ",
"                    b ,.) ,     X '.) ( *.'.                    ",
"                          *.*.S $ *.#       ).              . . ",
"                          !.~.  . .                         . . ",
"                          {.        . . . .         . . . .     ",
"                                    . . . .         . . . .     ",
"                                            . . . .             ",
"                                            . . . .             ",
"                                                                ",
"                                                                "};
