/* XPM */
static char * 08_09_xpm[] = {
"32 32 86 1",
" 	c #F2EDF1",
".	c #9FD2E5",
"+	c #0A65CA",
"@	c #165E3C",
"#	c #C23E51",
"$	c #C74253",
"%	c #6314CE",
"&	c #267E44",
"*	c #067AD1",
"=	c #0969CB",
"-	c #104EC0",
";	c #104ABF",
">	c #6616CF",
",	c #BE3A4F",
"'	c #711CD3",
")	c #0699DD",
"!	c #207141",
"~	c #18613D",
"{	c #8D2CDD",
"]	c #109FDF",
"^	c #6817D0",
"/	c #155B3B",
"(	c #BE48EE",
"_	c #8829DB",
":	c #ABF6FC",
"<	c #247943",
"[	c #39B6E7",
"}	c #8BE3F6",
"|	c #44AB4D",
"1	c #D04A58",
"2	c #0D5AC5",
"3	c #EC63FE",
"4	c #C3FEFF",
"5	c #389E4C",
"6	c #A53AE6",
"7	c #9832E1",
"8	c #BCFEFF",
"9	c #53BD4E",
"0	c #49B24D",
"a	c #8225D9",
"b	c #6E1BD2",
"c	c #D454F5",
"d	c #F0816B",
"e	c #0871CD",
"f	c #4BB44D",
"g	c #9D35E3",
"h	c #0E57C4",
"i	c #F5916F",
"j	c #FCF08D",
"k	c #DBFFFE",
"l	c #E5FFFE",
"m	c #F57CF7",
"n	c #F16CFC",
"o	c #CA4EF2",
"p	c #1A663E",
"q	c #FEC67E",
"r	c #FAA574",
"s	c #53C5EC",
"t	c #FB94EE",
"u	c #EC7267",
"v	c #FDB077",
"w	c #FDD483",
"x	c #FDE489",
"y	c #FECD80",
"z	c #E96463",
"A	c #FFA3E9",
"B	c #D34D59",
"C	c #FECA7F",
"D	c #ED7568",
"E	c #FFB679",
"F	c #FEC27D",
"G	c #EB6C66",
"H	c #DB545D",
"I	c #028ED9",
"J	c #2BAEE4",
"K	c #5CC9ED",
"L	c #4DB64E",
"M	c #E35A60",
"N	c #2D8B48",
"O	c #8DD962",
"P	c #0484D5",
"Q	c #CBF17A",
"R	c #EF7A69",
"S	c #0F51C1",
"T	c #EA6965",
"U	c #D8515B",
"                                ",
"                                ",
"      ..      ..                ",
"      ..      ..                ",
"        ......                  ",
"        ....+@ #$               ",
"        % & *=-;;-> ,           ",
"         '#  )      -!    ~     ",
"        >#{  ]       ^ # /      ",
"       ~# (_@:         <  #     ",
"           ( [}       | 1       ",
"      %2    3 4     55  ~1      ",
"            678#  .90   .ab     ",
"      #      cd48ef!13cg.h      ",
"     ~#      ijkl4+mno.. ~      ",
"     p,      qjrst= .... /      ",
"    ..,   .uvwxyzA              ",
"    .^# BCwruDEywF              ",
"     >GdH.'Is*  7Gu      ;      ",
"    # +...JK    LLdM    >,      ",
"      a  Ke     NO E            ",
"     > 2P        Qh R  >S       ",
"      ;--        |  TH^1        ",
"     S   +$       5  U-         ",
"          S #   ..0 #2#       ..",
"            -  ,#$ 2 -        ..",
"                  ....    ....  ",
"                  .@..    ....  ",
"                      ....      ",
"                      ....      ",
"                                ",
"                                "};
