/* XPM */
static char * 9_xpm[] = {
"32 32 92 2",
"  	c #F2EDF1",
". 	c #9FD2E5",
"+ 	c #104EC0",
"@ 	c #7C22D7",
"# 	c #BD3A4F",
"$ 	c #C23E51",
"% 	c #165E3C",
"& 	c #6E1AD2",
"* 	c #1049BF",
"= 	c #0A65CA",
"- 	c #6616CF",
"; 	c #067AD1",
"> 	c #0484D5",
", 	c #1C693F",
"' 	c #19623D",
") 	c #9330DF",
"! 	c #5CC9ED",
"~ 	c #028ED9",
"{ 	c #80DEF4",
"] 	c #9631E0",
"^ 	c #E5FFFE",
"/ 	c #BF3C50",
"( 	c #A238E4",
"_ 	c #0D5AC5",
": 	c #BCFEFF",
"< 	c #6A18D1",
"[ 	c #1E6E40",
"} 	c #155A3B",
"| 	c #C84354",
"1 	c #F1836C",
"2 	c #D24C58",
"3 	c #741ED4",
"4 	c #309249",
"5 	c #278045",
"6 	c #2B8847",
"7 	c #227542",
"8 	c #E86263",
"9 	c #A4F2FB",
"0 	c #E45B61",
"a 	c #0969CB",
"b 	c #32964A",
"c 	c #FFB679",
"d 	c #F2896D",
"e 	c #FEC67E",
"f 	c #0B61C8",
"g 	c #EF7D6A",
"h 	c #FDDB86",
"i 	c #C3FEFF",
"j 	c #6CD2F0",
"k 	c #0774CF",
"l 	c #DE565E",
"m 	c #FAA574",
"n 	c #0E52C2",
"o 	c #FDE489",
"p 	c #ED63FE",
"q 	c #F887F3",
"r 	c #8AE3F6",
"s 	c #2D8B48",
"t 	c #FECA7F",
"u 	c #FEC27D",
"v 	c #F16CFC",
"w 	c #FD9BEC",
"x 	c #23A9E3",
"y 	c #9D35E3",
"z 	c #F783F4",
"A 	c #D454F5",
"B 	c #B342EA",
"C 	c #FFBA7A",
"D 	c #FCAE76",
"E 	c #BA46ED",
"F 	c #4FB94E",
"G 	c #8427DA",
"H 	c #8A2BDC",
"I 	c #6113CE",
"J 	c #2BAEE4",
"K 	c #39B6E7",
"L 	c #EB6C66",
"M 	c #EC7267",
"N 	c #E0585F",
"O 	c #E75E62",
"P 	c #0193DB",
"Q 	c #0C5DC6",
"R 	c #92DB64",
"S 	c #5DC751",
"T 	c #F69670",
"U 	c #59C34F",
"V 	c #42A94C",
"W 	c #D7505B",
"X 	c #53BD4E",
"Y 	c #D8515B",
"Z 	c #359A4B",
"` 	c #CC4756",
"                                                                ",
"                                                                ",
"            . .             . .                                 ",
"            . .             . .   +                             ",
"                . . . @ . . # # # $ $                           ",
"                . . % & . .     * = *                           ",
"                % -             ; >     &   ,                   ",
"              '         )       ! ~ #                           ",
"                        @       {                               ",
"                        ]       ^                 /             ",
"          ' $             (   _ :                 %             ",
"                          <                         $ [         ",
"              }             | 1 2 3 . .   4 5 6 7 .             ",
"      # ' #               / 8 9 0 a ) . 5 b     . .             ",
"        # 2 1 c d e d   f g h i ^ j k   . . . .                 ",
"        }       l m d   n c o l p q r n - . . .                 ",
"        } .         . . s t u 1 v w x   y w z A B 3 }           ",
"        % .         . .   h C 1 D E F         G y H - - I       ",
"            . . n J K     L M N O <             *               ",
"          + . P . .             I                 < Q           ",
"      _ f                   7 5     l                           ",
"          - +               R S     T                           ",
"                            U V     W                           ",
"                            X 7       Y                         ",
"                _           S   . .   l     $ n             . . ",
"                  -   ,     Z   . .     #                   . . ",
"                      <     ' /     . . + .         . . . .     ",
"                          } }       . . ` .         . . . .     ",
"                                            . . . .             ",
"                                            . . . .             ",
"                                                                ",
"                                                                "};
