/* XPM */
static char * exit_xpm[] = {
"32 32 28 1",
" 	c #F2EDF1",
".	c #67A7E3",
"+	c #6CAAE4",
"@	c #69A8E4",
"#	c #6AA8E4",
"$	c #9FD2E5",
"%	c #EAE8F0",
"&	c #88B5E7",
"*	c #F1ECF1",
"=	c #70ABE4",
"-	c #9DD1E5",
";	c #87BFE5",
">	c #99CCE5",
",	c #ECE7F1",
"'	c #6CA9E4",
")	c #83BBE5",
"!	c #DFE1EE",
"~	c #EEEAF0",
"{	c #82BAE5",
"]	c #8DC3E5",
"^	c #8C6D3F",
"/	c #9D8756",
"(	c #252D25",
"_	c #86683C",
":	c #8B6C3F",
"<	c #1E241E",
"[	c #232B23",
"}	c #F59E44",
"         .....+@#....           ",
"        ....$$$   %..&          ",
"      ....$$$$$   *% .=.        ",
"     ...-$$$$$$       ...       ",
"    ...$$$$$$$$         ..@     ",
"   ..;>$$$$$$$$          ,..'   ",
" ...)$$$$$$$$$$           !~..  ",
" ..{$$$$$$$$$$$.             .  ",
" .]$$$$$$$$$$.^^$.           .  ",
" $$$$$$$$$$.$^///^$          .  ",
" $$$$$$$$.^^^^^^^^^^^        .  ",
" $$$$$$.^^///////////^.      .  ",
" $$$$..^//////////////^^.    .  ",
" $$$$^^^^^^^^^^^^^^^^^^^^$.  .  ",
" $$^^////////////////////^^^..  ",
" (^^////////^^^^_://///////^^.  ",
" (//////////((((<[^/////////^[  ",
" (//////////^}}^}}^//////////[  ",
" (^^^^^^^^^^((((((^^^^^^^^^^^[  ",
" (//////////^}}^}}^//////////[  ",
" (//////////((((((///////////[  ",
" (^^^^^^^^^^^^^^^^^^^^^^^^^^^[  ",
" (///////////////////////////[  ",
" (//////////(((((((//////////[  ",
" (^^(((((^^(/(((((^^^(((((^^^[$$",
" (//^}(}(//(/^///(^//(}(^}^//[$$",
" (//(((((//(/^///(^//(((((^//[  ",
" (^^^}(}(^^(//////}^^(}(^}^^^[  ",
" (//(((((//(/^///(^///((((///[  ",
" (/////////(/^///(^//////////[  ",
" (^^^^^^^^^(/^^^^(^^^^^^^^^^^[  ",
" [((((((((((((((((((((((((((([  "};
