/* XPM */
static char * gift2_xpm[] = {
"32 32 10 1",
" 	c #F2EDF1",
".	c #9FD2E5",
"+	c #272736",
"@	c #0FAB1E",
"#	c #0FD10A",
"$	c #95F595",
"%	c #9A0B0B",
"&	c #F35959",
"*	c #BF0A0A",
"=	c #3CE82E",
"                                ",
"                                ",
"      ..      ..                ",
"      ..      ..                ",
"        ......                  ",
"        ......                  ",
"            ++    ++            ",
"           +@#+  +#@+           ",
"          +$##@++@###+          ",
"          +$@@+$#+@@#+          ",
"          +#@@+$#+@@#+          ",
"         ++#$#@++@###++         ",
"       ++%%+@#+@@+##+%%++.      ",
"     ++%%&**++%==%++***%%++     ",
"     +%++%%%***==***%%%++%+     ",
"     +%&%+++%%*==*%%+++%%%+     ",
"    .+%**%%%++%==%++%%%**%+     ",
"    .+%&****%%+##+%%*****%+     ",
"     +%&*****%%@@%%******%+     ",
"     +%&******%##%*******%+     ",
"     +%&******%$#%*******%+     ",
"     +%&******%$#%*******%+     ",
"     ++%%*****%##%*****%%++     ",
"       ++%%%**%$#%**%%%++       ",
"         +++%%%##%%%+++       ..",
"            ++%@@%++          ..",
"              ++++....    ....  ",
"                  ....    ....  ",
"                      ....      ",
"                      ....      ",
"                                ",
"                                "};
