/* XPM */
static char * player_xpm[] = {
"32 32 24 1",
" 	c #F2EDF1",
".	c #8B93AF",
"+	c #DAE0EA",
"@	c #9FD2E5",
"#	c #B3B9D1",
"$	c #8A6F30",
"%	c #614B16",
"&	c #3D2D08",
"*	c #6D758D",
"=	c #4A5462",
"-	c #3D1A14",
";	c #8F563B",
">	c #663931",
",	c #BB7547",
"'	c #D9A066",
")	c #122020",
"!	c #24523B",
"~	c #1A7A3E",
"{	c #323C39",
"]	c #143464",
"^	c #285CC4",
"/	c #423934",
"(	c #A08662",
"_	c #796755",
"            ...                 ",
"           .+++.                ",
"      @@   .#++.$$$             ",
"      @@   .###%$$$$$$          ",
"        @@@@&&%%$$$$$$$         ",
"        @@@@@&&&%%$$$$$$        ",
"           &&&&%%%%%%#++#       ",
"           &&&%&%%#++###*       ",
"          =&&&#++####...*       ",
"          =**..####...--        ",
"          ==***....;;;;-        ",
"           =====>>,,>>,-'       ",
"           --'-,)*'')*'-'@      ",
"            -,-,))''))'-,@      ",
"           ----->',,'>>>        ",
"           ----->>>>>>>!        ",
"    @@    @@!!--->>>--~~~       ",
"    @@    @!!!!!----!~!~~       ",
"      @@@@ ~{!!!!!.~~!{!~~      ",
"      @@@@~~{{{~~!#~!{{{!~      ",
"          ~~{{!!!!#!!!!{!~      ",
"          ~!{{!~~!.~~~!{!~      ",
"          !{{{!!~!!.~!!{~~      ",
"          {{{{{{!!!#!~!{~       ",
"          !{{{{!!!!#~~{{~     @@",
"           ,'{{{{{!.!!{',     @@",
"           ,,]]]]]]]]]],, @@@@  ",
"             ]]^^ @]^^^   @@@@  ",
"             //^^  ]^//@@@      ",
"             ///^  ]///@@@      ",
"            /((_/  //_((        ",
"            /(__/  //__(        "};
