/* XPM */
static char * reindeer_xpm[] = {
"32 32 21 1",
" 	c #F2EDF1",
".	c #392626",
"+	c #9FD2E5",
"@	c #8A4424",
"#	c #AD5228",
"$	c #272736",
"%	c #863F1F",
"&	c #F09A69",
"*	c #E3B6A2",
"=	c #A75A36",
"-	c #85492E",
";	c #FFD3BE",
">	c #162D5E",
",	c #FFFFFF",
"'	c #6D351C",
")	c #E00F39",
"!	c #C71010",
"~	c #6E091F",
"{	c #B81337",
"]	c #E7103F",
"^	c #5D3826",
"                                ",
"                        .       ",
"      ++      +++      .@       ",
"      ++      +++   #. #.   ..  ",
"        ++++++       #@.  .@#.  ",
"        ++++++        ..   #.   ",
"                      ..  .@    ",
"                    $%$...#     ",
"                    $&&$$$      ",
"                     **==--$    ",
"                     %=-$$;-    ",
"                     %=;>>$-    ",
"                   ++%-*>,>-'   ",
"                   +$-'-);!';*$ ",
"                  ~{{'-$!!-;;*$ ",
"     $$ $%%%%%%%%${]]~'-$$$$$   ",
"    $=%$%========%;]]{~-'$      ",
"   $-'%===========~;;];~*       ",
"   $*%=========----~];;~~       ",
"  $;$---------------~]]{~~      ",
"    $----------'''''*~~~~~~     ",
"    $--------'';;;;;*$$;~~~     ",
"     '-----$;;;;;;;;-'$;~;~     ",
"      '---'$******$'--~;~~~     ",
"     $---'$      ++ '--{~      +",
"    $---$$       ++  $'''$     +",
"    $'''           ++$$';;$++++ ",
"    $;$            ++++ $**^+++ ",
"    $;                 ++++     ",
"    $^                 ++++     ",
"                                ",
"                                "};
