/* XPM */
static char * snow_tile_xpm[] = {
"32 32 2 1",
" 	c #F2EDF1",
".	c #9FD2E5",
"                                ",
"                                ",
"      ..      ..                ",
"      ..      ..                ",
"        ......                  ",
"        ......                  ",
"                                ",
"                                ",
"                                ",
"                                ",
"                                ",
"                                ",
"                  ..    ..      ",
"                  ..    ..      ",
"                    ....        ",
"                    ....        ",
"    ..    ..                    ",
"    ..    ..                    ",
"      ....                      ",
"      ....                      ",
"                                ",
"                                ",
"                                ",
"                                ",
"                ..            ..",
"                ..            ..",
"                  ....    ....  ",
"                  ....    ....  ",
"                      ....      ",
"                      ....      ",
"                                ",
"                                "};
