/* XPM */
static char * snowman1_xpm[] = {
"32 32 7 1",
" 	c #F2EDF1",
".	c #000000",
"+	c #9FD2E5",
"@	c #AD1D23",
"#	c #F6754E",
"$	c #8C6D3F",
"%	c #D384C7",
"                  ......        ",
"                  ......        ",
"      ++      ++..........      ",
"      ++      ++..........      ",
"        ++....@@@@@@........    ",
"        ++....@@@@@@........    ",
"            ........@@....      ",
"            ........@@....      ",
"          ..++++++......        ",
"          ..++++++......        ",
"        ..  ..  ..++++..        ",
"        ..  ..  ..++++..        ",
"  ..  ..######        ....      ",
"  ..  ..######        ....      ",
"..$$..  ..          ++..$$..    ",
"..$$..  ..          ++..$$..    ",
"  ..$$..  ..%%%%%%%%%%..$$$$..  ",
"  ..$$..  ..%%%%%%%%%%..$$$$..  ",
"    ..$$..          ..$$$$..    ",
"    ..$$..          ..$$$$..    ",
"      ..    ..    ..$$....%%..  ",
"      ..    ..    ..$$....%%..  ",
"      ..        ..$$..  %%..    ",
"      ..        ..$$..  %%..    ",
"      ..    ..    ..  ++..    ++",
"      ..    ..    ..  ++..    ++",
"      ..              ++..++++  ",
"      ..              ++..++++  ",
"        ..          ++..++      ",
"        ..          ++..++      ",
"          ..++++++++..          ",
"          ..++++++++..          "};
