/* XPM */
static char * wall_xpm[] = {
"32 32 7 1",
" 	c #F2EDF1",
".	c #181425",
"+	c #63C74D",
"@	c #9FD2E5",
"#	c #499B49",
"$	c #193C3E",
"%	c #3E8948",
"               ..               ",
"              .++.              ",
"      @@      .++.              ",
"      @@      .++.              ",
"        @@@@@.#+++.             ",
"        @@@@@.#+++.             ",
"             .##++.             ",
"            .####++.            ",
"           ..###+++..           ",
"          .####++++++.          ",
"          .###+++++++.          ",
"           .$$#+++##.           ",
"           .%$$%%%++.   @@      ",
"           .%%%##+++.   @@      ",
"           .%%###+++.@@@        ",
"         ..%%%#%#++++..@        ",
"    @@  .%%%%%%%#+#++++.        ",
"    @@  .$%%#######++++.        ",
"      @@@.$$$$$##$####.         ",
"      @@@@.$$%%$$%#++.          ",
"         .$$%%%%%##+++.         ",
"         .$%%%%####+++.         ",
"        .$%%%%#####++++.        ",
"       .$%%%%%#######+#+.       ",
"       .$%##%#######++++.     @@",
"      .$%%%######%##+++++.    @@",
"     .$$%%%%%%%#%#####++++.@@@  ",
"     .$$$%%$$$%%%######+++.@@@  ",
"      ..$$$%%$$$##%%%%##..      ",
"       .$$$%%%%$$%%####+.@      ",
"       .$$%%%%%%%%#####+.       ",
"      .$%%%%%%#%%######++.      "};
