/* XPM */
static char * wreath_xpm[] = {
"32 32 22 1",
" 	c #F2EDF1",
".	c #C96812",
"+	c #272736",
"@	c #227D12",
"#	c #FFF6B9",
"$	c #FECD23",
"%	c #349822",
"&	c #9FD2E5",
"*	c #36AC21",
"=	c #192892",
"-	c #93121B",
";	c #1744BD",
">	c #E24751",
",	c #61BBEB",
"'	c #3A83E3",
")	c #0F4D07",
"!	c #5EBC52",
"~	c #27771D",
"{	c #AB0F37",
"]	c #D10A37",
"^	c #BC1621",
"/	c #D32732",
"          .. ++@+++             ",
"         .#$.%@@@%%++@          ",
"      &&@.$$.**@*===@@@+        ",
"      &-%@..@**@=;;;=@*%@  @    ",
"      ->-@@@@@@=;,,';=@@@@@@@   ",
"     +%-*@**@**=;,'';=**..+@    ",
"    +%))*@**++%=;'++;=*.#$.@    ",
"    +)!~)@@+{]+@=+]{+@@.$$.@@   ",
"   +%)~~)@+]]]{++{]]]+**..*@+   ",
"  +@**))*%+]{{+]]+{{]+%*@**@%+  ",
"  @@@*@@@++]]]{++{]]]+@@@---@+  ",
"  .@***@%+ +{]+{{+]]+@+%-^^^-+  ",
" .$.**@%+   ++]]+{++   -^>>/^-@ ",
" +.@---@      +]+{+&   -^>//^-@@",
" +%-^^^-      +]+{+ &&&-^///^-@ ",
" @-^>>/^-     +]+{+ &&&&-^^^-%@ ",
"@@-^>//^- &&  +] {+    @@---@@@@",
" @-^///^- &&  +] +      @**@*%@ ",
" +%-^^^-&&     +        @**@..@ ",
" +@@---@&&             @@@@.#$.@",
"  +@**@%+              +@**.$$. ",
"  +@.*@*%+            +%@**@..  ",
"  @.$.@@*+            +@@=@@@+  ",
"   @.*@==%++        ++**=,=@+   ",
"    +*=,'=%%@+ @&&++%--*@=*@  &&",
"    +@=''=@@@@@@@+%%^>/^@@@@@ &&",
"     +@==@**@*))*%**^//^@%+@&&  ",
"      +%*@**@)!~)*@.*--*%+&&&&  ",
"     @@@@@@@@)~~)@.$.@@%+&      ",
"      @ +@%%@*))**@.%@++&&      ",
"          +++%%%%%%+++          ",
"             ++++++             "};
